<svg
  xmlns="http://www.w3.org/2000/svg"
  width="896"
  height="288"
  viewBox="0 0 896 288"
  fill="none"
>
  <style>
    * {
      transform-origin: center;
      transform-box: fill-box;
    }

    .animate-ping {
      animation: ping 1s cubic-bezier(0, 0, 0.2, 1) infinite;
    }

    .animate-fade-in {
      animation: fade-in 0.64s cubic-bezier(0, 0, 0.2, 1) forwards;
    }

    .animate-fade-in-bottom {
      animation: fade-in-bottom 0.64s cubic-bezier(0, 0, 0.2, 1) forwards;
    }

    .animate-fade-in-right {
      animation: fade-in-right 0.64s cubic-bezier(0, 0, 0.2, 1) forwards;
    }

    .title {
      opacity: 0;
      animation-delay: 0.4s;
    }

    .description {
      opacity: 0;
      animation-delay: 0.7s;
    }

    .additional {
      opacity: 0;
      animation-delay: 1s;
    }

    .additional__indicator {
      opacity: 0;
      animation-delay: 1.6s;
    }

    @keyframes ping {
      75%,
      100% {
        transform: scale(2);
        opacity: 0;
      }
    }

    @keyframes fade-in {
      from {
        opacity: 0;
      }
      to {
        opacity: 1;
      }
    }

    @keyframes fade-in-bottom {
      from {
        opacity: 0;
        transform: translate3d(0, -20px, 0);
      }
      to {
        opacity: 1;
        transform: translate3d(0, 0, 0);
      }
    }

    @keyframes fade-in-right {
      from {
        opacity: 0;
        transform: translate3d(-20px, 0, 0);
      }
      to {
        opacity: 1;
        transform: translate3d(0, 0, 0);
      }
    }
  </style>
  <g clip-path="url(#clip0_1_2)">
    <!-- #region background  -->
    <rect width="896" height="288" fill="url(#paint0_linear_1_2)" />
    <mask
      id="mask0_1_2"
      style="mask-type: alpha"
      maskUnits="userSpaceOnUse"
      x="0"
      y="0"
      width="896"
      height="288"
    >
      <rect width="896" height="288" fill="url(#paint1_linear_1_2)" />
    </mask>
    <g mask="url(#mask0_1_2)">
      <path
        d="M32.5001 0L32.5001 288M64.5001 0L64.5001 288M96.5001 0L96.5001 288M128.5 0L128.5 288M160.5 0L160.5 288M192.5 0L192.5 288M224.5 0L224.5 288M256.5 0V288M288.5 0V288M320.5 0V288M352.5 0V288M384.5 0V288M416.5 0V288M448.5 0V288M480.5 0V288M512.5 0V288M544.5 0V288M576.5 0V288M608.5 0V288M640.5 0V288M672.5 0V288M704.5 0V288M736.5 0V288M768.5 0V288M800.5 0V288M832.5 0V288M864.5 0V288M0 31.5H896M0 63.5H896M0 95.5H896M0 127.5H896M0 159.5H896M0 191.5H896M0 223.5H896M0 255.5H896"
        stroke="white"
        stroke-opacity="0.04"
        stroke-dasharray="5 5"
      />
    </g>
    <!-- #endregion -->

    <!-- #region title -->
    <g class="animate-fade-in-bottom title">
      <path d="M193.175 136V91.2H202.007V136H193.175ZM208.093 107.904L210.077 91.2H218.909L213.981 107.904H208.093ZM222.09 136V104H230.922V106.368C232.01 105.344 233.269 104.544 234.698 103.968C236.127 103.392 237.642 103.104 239.242 103.104C241.418 103.104 243.413 103.605 245.226 104.608C247.061 105.611 248.533 106.944 249.642 108.608C250.773 106.944 252.245 105.611 254.058 104.608C255.871 103.605 257.855 103.104 260.01 103.104C262.335 103.104 264.437 103.669 266.314 104.8C268.213 105.931 269.727 107.445 270.858 109.344C271.989 111.221 272.554 113.323 272.554 115.648V136H263.722V118.08C263.722 116.971 263.445 115.968 262.89 115.072C262.357 114.155 261.642 113.429 260.746 112.896C259.85 112.341 258.847 112.064 257.738 112.064C256.629 112.064 255.615 112.331 254.698 112.864C253.802 113.397 253.077 114.123 252.522 115.04C251.989 115.936 251.722 116.949 251.722 118.08V136H242.89V118.08C242.89 116.949 242.623 115.936 242.09 115.04C241.557 114.123 240.831 113.397 239.914 112.864C239.018 112.331 238.015 112.064 236.906 112.064C235.818 112.064 234.815 112.341 233.898 112.896C233.002 113.429 232.277 114.155 231.722 115.072C231.189 115.968 230.922 116.971 230.922 118.08V136H222.09ZM497.028 136V91.2H513.54C515.993 91.2 518.201 91.8187 520.164 93.056C522.148 94.2933 523.726 95.9467 524.9 98.016C526.073 100.064 526.66 102.325 526.66 104.8C526.66 107.317 526.062 109.611 524.868 111.68C523.673 113.728 522.073 115.36 520.068 116.576C518.084 117.792 515.908 118.4 513.54 118.4H505.86V136H497.028ZM505.86 109.568H512.548C513.529 109.568 514.414 109.333 515.204 108.864C515.993 108.373 516.622 107.723 517.092 106.912C517.582 106.08 517.828 105.163 517.828 104.16C517.828 103.179 517.582 102.283 517.092 101.472C516.622 100.64 515.993 99.9787 515.204 99.488C514.414 98.9973 513.529 98.752 512.548 98.752H505.86V109.568ZM553.766 104H562.597V136H553.734L553.318 132.672C552.486 133.909 551.419 134.912 550.118 135.68C548.816 136.448 547.291 136.832 545.542 136.832C543.152 136.832 540.923 136.384 538.854 135.488C536.784 134.592 534.96 133.355 533.382 131.776C531.803 130.197 530.566 128.373 529.67 126.304C528.795 124.213 528.358 121.973 528.358 119.584C528.358 117.301 528.774 115.168 529.606 113.184C530.438 111.2 531.611 109.451 533.126 107.936C534.64 106.421 536.379 105.237 538.342 104.384C540.326 103.531 542.459 103.104 544.742 103.104C546.704 103.104 548.464 103.52 550.022 104.352C551.6 105.184 552.976 106.24 554.15 107.52L553.766 104ZM545.318 128.352C546.768 128.352 548.08 127.979 549.254 127.232C550.427 126.485 551.355 125.483 552.038 124.224C552.72 122.944 553.062 121.536 553.062 120C553.062 118.443 552.72 117.035 552.038 115.776C551.355 114.517 550.427 113.515 549.254 112.768C548.08 112.021 546.768 111.648 545.318 111.648C543.846 111.648 542.512 112.021 541.318 112.768C540.123 113.515 539.174 114.528 538.47 115.808C537.766 117.067 537.414 118.464 537.414 120C537.414 121.536 537.766 122.944 538.47 124.224C539.195 125.483 540.155 126.485 541.35 127.232C542.544 127.979 543.867 128.352 545.318 128.352ZM586.436 112.832H580.676V136H571.844V112.832H567.428V104H571.844V93.952H580.676V104H586.436V112.832ZM592.247 136L592.215 104H601.047L601.079 106.368C602.146 105.344 603.394 104.544 604.823 103.968C606.274 103.392 607.799 103.104 609.399 103.104C610.572 103.104 611.746 103.275 612.919 103.616L609.431 112.544C608.663 112.224 607.884 112.064 607.095 112.064C605.986 112.064 604.972 112.331 604.055 112.864C603.138 113.397 602.412 114.123 601.879 115.04C601.346 115.936 601.079 116.949 601.079 118.08V136H592.247ZM616.215 104H625.047V136H616.215V104ZM620.695 100.32C619.415 100.32 618.338 99.8933 617.463 99.04C616.588 98.1867 616.151 97.1307 616.151 95.872C616.151 94.6133 616.588 93.5573 617.463 92.704C618.338 91.8507 619.404 91.424 620.663 91.424C621.922 91.424 622.978 91.8507 623.831 92.704C624.706 93.5573 625.143 94.6133 625.143 95.872C625.143 97.1307 624.716 98.1867 623.863 99.04C623.031 99.8933 621.975 100.32 620.695 100.32ZM650.784 125.888L658.72 130.176C657.248 132.181 655.403 133.792 653.184 135.008C650.965 136.224 648.544 136.832 645.92 136.832C642.976 136.832 640.288 136.075 637.856 134.56C635.445 133.045 633.515 131.019 632.064 128.48C630.635 125.92 629.92 123.093 629.92 120C629.92 117.653 630.336 115.467 631.168 113.44C632 111.392 633.141 109.6 634.592 108.064C636.064 106.507 637.771 105.291 639.712 104.416C641.653 103.541 643.723 103.104 645.92 103.104C648.544 103.104 650.965 103.712 653.184 104.928C655.403 106.144 657.248 107.776 658.72 109.824L650.784 114.112C650.123 113.408 649.365 112.875 648.512 112.512C647.68 112.128 646.816 111.936 645.92 111.936C644.555 111.936 643.328 112.309 642.24 113.056C641.173 113.803 640.32 114.795 639.68 116.032C639.061 117.248 638.752 118.571 638.752 120C638.752 121.408 639.072 122.72 639.712 123.936C640.352 125.152 641.205 126.133 642.272 126.88C643.36 127.627 644.576 128 645.92 128C646.837 128 647.712 127.808 648.544 127.424C649.376 127.04 650.123 126.528 650.784 125.888ZM663.028 104H671.86V136H663.028V104ZM667.508 100.32C666.228 100.32 665.15 99.8933 664.276 99.04C663.401 98.1867 662.964 97.1307 662.964 95.872C662.964 94.6133 663.401 93.5573 664.276 92.704C665.15 91.8507 666.217 91.424 667.476 91.424C668.734 91.424 669.79 91.8507 670.644 92.704C671.518 93.5573 671.956 94.6133 671.956 95.872C671.956 97.1307 671.529 98.1867 670.676 99.04C669.844 99.8933 668.788 100.32 667.508 100.32ZM692.733 136.832C689.789 136.832 687.101 136.075 684.669 134.56C682.258 133.045 680.327 131.019 678.877 128.48C677.447 125.92 676.733 123.093 676.733 120C676.733 117.653 677.149 115.467 677.981 113.44C678.813 111.392 679.954 109.6 681.405 108.064C682.877 106.507 684.583 105.291 686.525 104.416C688.466 103.541 690.535 103.104 692.733 103.104C695.677 103.104 698.354 103.861 700.765 105.376C703.197 106.891 705.127 108.928 706.557 111.488C708.007 114.048 708.733 116.885 708.733 120C708.733 122.325 708.317 124.501 707.485 126.528C706.653 128.555 705.501 130.347 704.029 131.904C702.578 133.44 700.882 134.645 698.941 135.52C697.021 136.395 694.951 136.832 692.733 136.832ZM692.733 128C694.098 128 695.325 127.637 696.413 126.912C697.501 126.165 698.354 125.184 698.973 123.968C699.591 122.752 699.901 121.429 699.901 120C699.901 118.528 699.57 117.184 698.909 115.968C698.269 114.731 697.405 113.749 696.317 113.024C695.229 112.299 694.034 111.936 692.733 111.936C691.389 111.936 690.173 112.309 689.085 113.056C687.997 113.803 687.133 114.784 686.493 116C685.874 117.216 685.565 118.549 685.565 120C685.565 121.515 685.885 122.88 686.525 124.096C687.186 125.291 688.061 126.24 689.149 126.944C690.237 127.648 691.431 128 692.733 128Z"
        fill="#CBD5E1"
      />
      <path d="M301.188 136.832C299.481 136.832 297.807 136.544 296.164 135.968C294.543 135.392 293.081 134.539 291.78 133.408L297.444 126.624C297.849 126.944 298.361 127.253 298.98 127.552C299.599 127.851 300.335 128 301.188 128C302.276 128 303.257 127.733 304.132 127.2C305.028 126.645 305.743 125.92 306.276 125.024C306.809 124.107 307.076 123.115 307.076 122.048V91.2H315.908V122.048C315.908 124.757 315.247 127.232 313.924 129.472C312.601 131.691 310.82 133.472 308.58 134.816C306.361 136.16 303.897 136.832 301.188 136.832ZM347.078 104H355.91V136H347.046L346.63 132.672C345.798 133.909 344.731 134.912 343.43 135.68C342.129 136.448 340.603 136.832 338.854 136.832C336.465 136.832 334.235 136.384 332.166 135.488C330.097 134.592 328.273 133.355 326.694 131.776C325.115 130.197 323.878 128.373 322.982 126.304C322.107 124.213 321.67 121.973 321.67 119.584C321.67 117.301 322.086 115.168 322.918 113.184C323.75 111.2 324.923 109.451 326.438 107.936C327.953 106.421 329.691 105.237 331.654 104.384C333.638 103.531 335.771 103.104 338.054 103.104C340.017 103.104 341.777 103.52 343.334 104.352C344.913 105.184 346.289 106.24 347.462 107.52L347.078 104ZM338.63 128.352C340.081 128.352 341.393 127.979 342.566 127.232C343.739 126.485 344.667 125.483 345.35 124.224C346.033 122.944 346.374 121.536 346.374 120C346.374 118.443 346.033 117.035 345.35 115.776C344.667 114.517 343.739 113.515 342.566 112.768C341.393 112.021 340.081 111.648 338.63 111.648C337.158 111.648 335.825 112.021 334.63 112.768C333.435 113.515 332.486 114.528 331.782 115.808C331.078 117.067 330.726 118.464 330.726 120C330.726 121.536 331.078 122.944 331.782 124.224C332.507 125.483 333.467 126.485 334.662 127.232C335.857 127.979 337.179 128.352 338.63 128.352ZM362.34 136V104H371.172V106.368C372.26 105.344 373.519 104.544 374.948 103.968C376.377 103.392 377.892 103.104 379.492 103.104C381.668 103.104 383.663 103.605 385.476 104.608C387.311 105.611 388.783 106.944 389.892 108.608C391.023 106.944 392.495 105.611 394.308 104.608C396.121 103.605 398.105 103.104 400.26 103.104C402.585 103.104 404.687 103.669 406.564 104.8C408.463 105.931 409.977 107.445 411.108 109.344C412.239 111.221 412.804 113.323 412.804 115.648V136H403.972V118.08C403.972 116.971 403.695 115.968 403.14 115.072C402.607 114.155 401.892 113.429 400.996 112.896C400.1 112.341 399.097 112.064 397.988 112.064C396.879 112.064 395.865 112.331 394.948 112.864C394.052 113.397 393.327 114.123 392.772 115.04C392.239 115.936 391.972 116.949 391.972 118.08V136H383.14V118.08C383.14 116.949 382.873 115.936 382.34 115.04C381.807 114.123 381.081 113.397 380.164 112.864C379.268 112.331 378.265 112.064 377.156 112.064C376.068 112.064 375.065 112.341 374.148 112.896C373.252 113.429 372.527 114.155 371.972 115.072C371.439 115.968 371.172 116.971 371.172 118.08V136H362.34ZM432.67 136.832C429.726 136.832 427.038 136.075 424.606 134.56C422.195 133.045 420.265 131.008 418.814 128.448C417.385 125.888 416.67 123.061 416.67 119.968C416.67 117.643 417.086 115.467 417.918 113.44C418.75 111.392 419.891 109.6 421.342 108.064C422.814 106.507 424.521 105.291 426.462 104.416C428.403 103.541 430.473 103.104 432.67 103.104C435.209 103.104 437.523 103.648 439.614 104.736C441.726 105.824 443.507 107.307 444.958 109.184C446.43 111.061 447.475 113.184 448.094 115.552C448.734 117.92 448.841 120.384 448.414 122.944H426.206C426.483 123.883 426.91 124.736 427.486 125.504C428.083 126.251 428.809 126.848 429.662 127.296C430.537 127.744 431.539 127.979 432.67 128C433.779 128.021 434.803 127.765 435.742 127.232C436.681 126.699 437.481 125.984 438.142 125.088L447.166 127.168C445.865 130.005 443.923 132.331 441.342 134.144C438.761 135.936 435.87 136.832 432.67 136.832ZM425.886 116.416H439.486C439.209 115.349 438.739 114.389 438.078 113.536C437.417 112.683 436.617 112.011 435.678 111.52C434.761 111.029 433.758 110.784 432.67 110.784C431.603 110.784 430.601 111.029 429.662 111.52C428.745 112.011 427.955 112.683 427.294 113.536C426.654 114.368 426.185 115.328 425.886 116.416ZM463.09 136.576C461.447 136.448 459.868 136.107 458.354 135.552C456.839 134.976 455.484 134.208 454.29 133.248C453.116 132.267 452.199 131.093 451.538 129.728L458.962 126.528C459.196 126.869 459.548 127.243 460.018 127.648C460.487 128.032 461.052 128.373 461.714 128.672C462.396 128.971 463.186 129.12 464.082 129.12C464.743 129.12 465.383 129.045 466.002 128.896C466.62 128.725 467.122 128.459 467.506 128.096C467.89 127.712 468.082 127.211 468.082 126.592C468.082 125.909 467.836 125.387 467.346 125.024C466.855 124.661 466.258 124.395 465.554 124.224C464.871 124.032 464.21 123.872 463.57 123.744C461.607 123.403 459.751 122.795 458.002 121.92C456.274 121.024 454.866 119.872 453.778 118.464C452.69 117.056 452.146 115.371 452.146 113.408C452.146 111.253 452.711 109.397 453.842 107.84C454.972 106.261 456.444 105.045 458.258 104.192C460.071 103.339 462.034 102.912 464.146 102.912C466.642 102.912 468.956 103.435 471.09 104.48C473.223 105.525 474.94 106.997 476.242 108.896L469.266 113.024C468.988 112.619 468.626 112.235 468.178 111.872C467.751 111.488 467.25 111.168 466.674 110.912C466.119 110.635 465.522 110.475 464.882 110.432C464.05 110.368 463.292 110.421 462.61 110.592C461.927 110.741 461.383 111.029 460.978 111.456C460.594 111.883 460.402 112.459 460.402 113.184C460.402 113.888 460.711 114.411 461.33 114.752C461.948 115.072 462.663 115.317 463.474 115.488C464.284 115.637 464.999 115.819 465.618 116.032C467.474 116.629 469.212 117.397 470.834 118.336C472.476 119.253 473.799 120.384 474.802 121.728C475.804 123.072 476.274 124.651 476.21 126.464C476.21 128.576 475.58 130.432 474.322 132.032C473.063 133.611 471.431 134.816 469.426 135.648C467.442 136.459 465.33 136.768 463.09 136.576Z"
        fill="#AA4BD7"
      />
    </g>
    <!-- #endregion -->

    <!-- #region description -->
    <g class="animate-fade-in-bottom description">
      <path
        d="M278.587 167V155.912H285.275V157.24H280.139V160.584H284.699V161.896H280.139V167H278.587ZM289.704 158.504C289.832 158.504 289.976 158.515 290.136 158.536C290.306 158.547 290.472 158.568 290.632 158.6C290.792 158.621 290.936 158.648 291.064 158.68C291.202 158.701 291.304 158.723 291.368 158.744L291.112 160.04C290.994 159.997 290.797 159.949 290.52 159.896C290.253 159.832 289.906 159.8 289.48 159.8C289.202 159.8 288.925 159.832 288.648 159.896C288.381 159.949 288.205 159.987 288.12 160.008V167H286.632V159.032C286.984 158.904 287.421 158.787 287.944 158.68C288.466 158.563 289.053 158.504 289.704 158.504ZM292.339 162.856C292.339 162.12 292.446 161.48 292.659 160.936C292.873 160.381 293.155 159.923 293.507 159.56C293.859 159.197 294.265 158.925 294.723 158.744C295.182 158.563 295.651 158.472 296.131 158.472C297.251 158.472 298.11 158.824 298.707 159.528C299.305 160.221 299.603 161.283 299.603 162.712C299.603 162.776 299.603 162.861 299.603 162.968C299.603 163.064 299.598 163.155 299.587 163.24H293.891C293.955 164.104 294.206 164.76 294.643 165.208C295.081 165.656 295.763 165.88 296.691 165.88C297.214 165.88 297.651 165.837 298.003 165.752C298.366 165.656 298.638 165.565 298.819 165.48L299.027 166.728C298.846 166.824 298.526 166.925 298.067 167.032C297.619 167.139 297.107 167.192 296.531 167.192C295.806 167.192 295.177 167.085 294.643 166.872C294.121 166.648 293.689 166.344 293.347 165.96C293.006 165.576 292.75 165.123 292.579 164.6C292.419 164.067 292.339 163.485 292.339 162.856ZM298.051 162.04C298.062 161.368 297.891 160.819 297.539 160.392C297.198 159.955 296.723 159.736 296.115 159.736C295.774 159.736 295.47 159.805 295.203 159.944C294.947 160.072 294.729 160.243 294.547 160.456C294.366 160.669 294.222 160.915 294.115 161.192C294.019 161.469 293.955 161.752 293.923 162.04H298.051ZM301.277 162.856C301.277 162.12 301.384 161.48 301.597 160.936C301.81 160.381 302.093 159.923 302.445 159.56C302.797 159.197 303.202 158.925 303.661 158.744C304.12 158.563 304.589 158.472 305.069 158.472C306.189 158.472 307.048 158.824 307.645 159.528C308.242 160.221 308.541 161.283 308.541 162.712C308.541 162.776 308.541 162.861 308.541 162.968C308.541 163.064 308.536 163.155 308.525 163.24H302.829C302.893 164.104 303.144 164.76 303.581 165.208C304.018 165.656 304.701 165.88 305.629 165.88C306.152 165.88 306.589 165.837 306.941 165.752C307.304 165.656 307.576 165.565 307.757 165.48L307.965 166.728C307.784 166.824 307.464 166.925 307.005 167.032C306.557 167.139 306.045 167.192 305.469 167.192C304.744 167.192 304.114 167.085 303.581 166.872C303.058 166.648 302.626 166.344 302.285 165.96C301.944 165.576 301.688 165.123 301.517 164.6C301.357 164.067 301.277 163.485 301.277 162.856ZM306.989 162.04C307 161.368 306.829 160.819 306.477 160.392C306.136 159.955 305.661 159.736 305.053 159.736C304.712 159.736 304.408 159.805 304.141 159.944C303.885 160.072 303.666 160.243 303.485 160.456C303.304 160.669 303.16 160.915 303.053 161.192C302.957 161.469 302.893 161.752 302.861 162.04H306.989ZM313.174 167.16C312.257 167.139 311.606 166.941 311.222 166.568C310.838 166.195 310.646 165.613 310.646 164.824V154.84L312.134 154.584V164.584C312.134 164.829 312.156 165.032 312.198 165.192C312.241 165.352 312.31 165.48 312.406 165.576C312.502 165.672 312.63 165.747 312.79 165.8C312.95 165.843 313.148 165.88 313.382 165.912L313.174 167.16ZM317.869 165.928C318.221 165.928 318.531 165.923 318.797 165.912C319.075 165.891 319.304 165.859 319.485 165.816V163.336C319.379 163.283 319.203 163.24 318.957 163.208C318.723 163.165 318.435 163.144 318.093 163.144C317.869 163.144 317.629 163.16 317.373 163.192C317.128 163.224 316.899 163.293 316.685 163.4C316.483 163.496 316.312 163.635 316.173 163.816C316.035 163.987 315.965 164.216 315.965 164.504C315.965 165.037 316.136 165.411 316.477 165.624C316.819 165.827 317.283 165.928 317.869 165.928ZM317.741 158.472C318.339 158.472 318.84 158.552 319.245 158.712C319.661 158.861 319.992 159.08 320.237 159.368C320.493 159.645 320.675 159.981 320.781 160.376C320.888 160.76 320.941 161.187 320.941 161.656V166.856C320.813 166.877 320.632 166.909 320.397 166.952C320.173 166.984 319.917 167.016 319.629 167.048C319.341 167.08 319.027 167.107 318.685 167.128C318.355 167.16 318.024 167.176 317.693 167.176C317.224 167.176 316.792 167.128 316.397 167.032C316.003 166.936 315.661 166.787 315.373 166.584C315.085 166.371 314.861 166.093 314.701 165.752C314.541 165.411 314.461 165 314.461 164.52C314.461 164.061 314.552 163.667 314.733 163.336C314.925 163.005 315.181 162.739 315.501 162.536C315.821 162.333 316.195 162.184 316.621 162.088C317.048 161.992 317.496 161.944 317.965 161.944C318.115 161.944 318.269 161.955 318.429 161.976C318.589 161.987 318.739 162.008 318.877 162.04C319.027 162.061 319.155 162.083 319.261 162.104C319.368 162.125 319.443 162.141 319.485 162.152V161.736C319.485 161.491 319.459 161.251 319.405 161.016C319.352 160.771 319.256 160.557 319.117 160.376C318.979 160.184 318.787 160.035 318.541 159.928C318.307 159.811 317.997 159.752 317.613 159.752C317.123 159.752 316.691 159.789 316.317 159.864C315.955 159.928 315.683 159.997 315.501 160.072L315.325 158.84C315.517 158.755 315.837 158.675 316.285 158.6C316.733 158.515 317.219 158.472 317.741 158.472ZM323.413 158.92C323.754 158.835 324.207 158.744 324.773 158.648C325.338 158.552 325.989 158.504 326.725 158.504C327.386 158.504 327.935 158.6 328.373 158.792C328.81 158.973 329.157 159.235 329.413 159.576C329.679 159.907 329.866 160.307 329.973 160.776C330.079 161.245 330.133 161.763 330.133 162.328V167H328.645V162.648C328.645 162.136 328.607 161.699 328.533 161.336C328.469 160.973 328.357 160.68 328.197 160.456C328.037 160.232 327.823 160.072 327.557 159.976C327.29 159.869 326.959 159.816 326.565 159.816C326.405 159.816 326.239 159.821 326.069 159.832C325.898 159.843 325.733 159.859 325.573 159.88C325.423 159.891 325.285 159.907 325.157 159.928C325.039 159.949 324.954 159.965 324.901 159.976V167H323.413V158.92ZM336.216 167.192C335.544 167.192 334.952 167.085 334.44 166.872C333.939 166.659 333.512 166.36 333.16 165.976C332.819 165.592 332.563 165.139 332.392 164.616C332.222 164.083 332.136 163.496 332.136 162.856C332.136 162.216 332.227 161.629 332.408 161.096C332.6 160.563 332.867 160.104 333.208 159.72C333.55 159.325 333.966 159.021 334.456 158.808C334.958 158.584 335.512 158.472 336.12 158.472C336.494 158.472 336.867 158.504 337.24 158.568C337.614 158.632 337.971 158.733 338.312 158.872L337.976 160.136C337.752 160.029 337.491 159.944 337.192 159.88C336.904 159.816 336.595 159.784 336.264 159.784C335.432 159.784 334.792 160.045 334.344 160.568C333.907 161.091 333.688 161.853 333.688 162.856C333.688 163.304 333.736 163.715 333.832 164.088C333.939 164.461 334.099 164.781 334.312 165.048C334.536 165.315 334.819 165.523 335.16 165.672C335.502 165.811 335.918 165.88 336.408 165.88C336.803 165.88 337.16 165.843 337.48 165.768C337.8 165.693 338.051 165.613 338.232 165.528L338.44 166.776C338.355 166.829 338.232 166.883 338.072 166.936C337.912 166.979 337.731 167.016 337.528 167.048C337.326 167.091 337.107 167.123 336.872 167.144C336.648 167.176 336.43 167.192 336.216 167.192ZM339.574 162.856C339.574 162.12 339.68 161.48 339.894 160.936C340.107 160.381 340.39 159.923 340.742 159.56C341.094 159.197 341.499 158.925 341.958 158.744C342.416 158.563 342.886 158.472 343.366 158.472C344.486 158.472 345.344 158.824 345.942 159.528C346.539 160.221 346.838 161.283 346.838 162.712C346.838 162.776 346.838 162.861 346.838 162.968C346.838 163.064 346.832 163.155 346.822 163.24H341.126C341.19 164.104 341.44 164.76 341.878 165.208C342.315 165.656 342.998 165.88 343.926 165.88C344.448 165.88 344.886 165.837 345.238 165.752C345.6 165.656 345.872 165.565 346.054 165.48L346.262 166.728C346.08 166.824 345.76 166.925 345.302 167.032C344.854 167.139 344.342 167.192 343.766 167.192C343.04 167.192 342.411 167.085 341.878 166.872C341.355 166.648 340.923 166.344 340.582 165.96C340.24 165.576 339.984 165.123 339.814 164.6C339.654 164.067 339.574 163.485 339.574 162.856ZM345.286 162.04C345.296 161.368 345.126 160.819 344.774 160.392C344.432 159.955 343.958 159.736 343.35 159.736C343.008 159.736 342.704 159.805 342.438 159.944C342.182 160.072 341.963 160.243 341.782 160.456C341.6 160.669 341.456 160.915 341.35 161.192C341.254 161.469 341.19 161.752 341.158 162.04H345.286ZM352.047 158.504C352.175 158.504 352.319 158.515 352.479 158.536C352.65 158.547 352.815 158.568 352.975 158.6C353.135 158.621 353.279 158.648 353.407 158.68C353.546 158.701 353.647 158.723 353.711 158.744L353.455 160.04C353.338 159.997 353.141 159.949 352.863 159.896C352.597 159.832 352.25 159.8 351.823 159.8C351.546 159.8 351.269 159.832 350.991 159.896C350.725 159.949 350.549 159.987 350.463 160.008V167H348.975V159.032C349.327 158.904 349.765 158.787 350.287 158.68C350.81 158.563 351.397 158.504 352.047 158.504ZM358.146 164.216V159.464L362.898 161.848L358.146 164.216ZM368.571 167V155.912H375.259V157.24H370.123V160.584H374.683V161.896H370.123V167H368.571ZM383.287 166.76C382.945 166.845 382.492 166.936 381.927 167.032C381.372 167.128 380.727 167.176 379.991 167.176C379.351 167.176 378.812 167.085 378.375 166.904C377.937 166.712 377.585 166.445 377.319 166.104C377.052 165.763 376.86 165.363 376.743 164.904C376.625 164.435 376.567 163.917 376.567 163.352V158.68H378.055V163.032C378.055 164.045 378.215 164.771 378.535 165.208C378.855 165.645 379.393 165.864 380.151 165.864C380.311 165.864 380.476 165.859 380.647 165.848C380.817 165.837 380.977 165.827 381.127 165.816C381.276 165.795 381.409 165.779 381.527 165.768C381.655 165.747 381.745 165.725 381.799 165.704V158.68H383.287V166.76ZM388.346 167.16C387.429 167.139 386.778 166.941 386.394 166.568C386.01 166.195 385.818 165.613 385.818 164.824V154.84L387.306 154.584V164.584C387.306 164.829 387.328 165.032 387.37 165.192C387.413 165.352 387.482 165.48 387.578 165.576C387.674 165.672 387.802 165.747 387.962 165.8C388.122 165.843 388.32 165.88 388.554 165.912L388.346 167.16ZM392.721 167.16C391.804 167.139 391.153 166.941 390.769 166.568C390.385 166.195 390.193 165.613 390.193 164.824V154.84L391.681 154.584V164.584C391.681 164.829 391.703 165.032 391.745 165.192C391.788 165.352 391.857 165.48 391.953 165.576C392.049 165.672 392.177 165.747 392.337 165.8C392.497 165.843 392.695 165.88 392.929 165.912L392.721 167.16ZM393.736 161.512H397.688V162.904H393.736V161.512ZM402.054 165.896C403.675 165.896 404.486 165.341 404.486 164.232C404.486 163.891 404.411 163.603 404.262 163.368C404.123 163.123 403.931 162.915 403.686 162.744C403.44 162.563 403.158 162.408 402.838 162.28C402.528 162.152 402.198 162.024 401.846 161.896C401.44 161.757 401.056 161.603 400.694 161.432C400.331 161.251 400.016 161.043 399.75 160.808C399.483 160.563 399.27 160.275 399.11 159.944C398.96 159.613 398.886 159.213 398.886 158.744C398.886 157.773 399.216 157.016 399.878 156.472C400.539 155.928 401.451 155.656 402.614 155.656C403.286 155.656 403.894 155.731 404.438 155.88C404.992 156.019 405.398 156.173 405.654 156.344L405.158 157.608C404.934 157.469 404.598 157.336 404.15 157.208C403.712 157.069 403.2 157 402.614 157C402.315 157 402.038 157.032 401.782 157.096C401.526 157.16 401.302 157.256 401.11 157.384C400.918 157.512 400.763 157.677 400.646 157.88C400.539 158.072 400.486 158.301 400.486 158.568C400.486 158.867 400.544 159.117 400.662 159.32C400.779 159.523 400.944 159.704 401.158 159.864C401.371 160.013 401.616 160.152 401.894 160.28C402.182 160.408 402.496 160.536 402.838 160.664C403.318 160.856 403.755 161.048 404.15 161.24C404.555 161.432 404.902 161.661 405.19 161.928C405.488 162.195 405.718 162.515 405.878 162.888C406.038 163.251 406.118 163.693 406.118 164.216C406.118 165.187 405.76 165.933 405.046 166.456C404.342 166.979 403.344 167.24 402.054 167.24C401.616 167.24 401.211 167.208 400.838 167.144C400.475 167.091 400.15 167.027 399.862 166.952C399.574 166.867 399.323 166.781 399.11 166.696C398.907 166.6 398.747 166.52 398.63 166.456L399.094 165.176C399.339 165.315 399.712 165.469 400.214 165.64C400.715 165.811 401.328 165.896 402.054 165.896ZM409.289 158.68H412.441V159.928H409.289V163.768C409.289 164.184 409.321 164.531 409.385 164.808C409.449 165.075 409.545 165.288 409.673 165.448C409.801 165.597 409.961 165.704 410.153 165.768C410.345 165.832 410.569 165.864 410.825 165.864C411.273 165.864 411.631 165.816 411.897 165.72C412.175 165.613 412.367 165.539 412.473 165.496L412.761 166.728C412.612 166.803 412.351 166.893 411.977 167C411.604 167.117 411.177 167.176 410.697 167.176C410.132 167.176 409.663 167.107 409.289 166.968C408.927 166.819 408.633 166.6 408.409 166.312C408.185 166.024 408.025 165.672 407.929 165.256C407.844 164.829 407.801 164.339 407.801 163.784V156.36L409.289 156.104V158.68ZM417.151 165.928C417.503 165.928 417.812 165.923 418.079 165.912C418.356 165.891 418.585 165.859 418.767 165.816V163.336C418.66 163.283 418.484 163.24 418.239 163.208C418.004 163.165 417.716 163.144 417.375 163.144C417.151 163.144 416.911 163.16 416.655 163.192C416.409 163.224 416.18 163.293 415.967 163.4C415.764 163.496 415.593 163.635 415.455 163.816C415.316 163.987 415.247 164.216 415.247 164.504C415.247 165.037 415.417 165.411 415.759 165.624C416.1 165.827 416.564 165.928 417.151 165.928ZM417.023 158.472C417.62 158.472 418.121 158.552 418.527 158.712C418.943 158.861 419.273 159.08 419.519 159.368C419.775 159.645 419.956 159.981 420.063 160.376C420.169 160.76 420.223 161.187 420.223 161.656V166.856C420.095 166.877 419.913 166.909 419.679 166.952C419.455 166.984 419.199 167.016 418.911 167.048C418.623 167.08 418.308 167.107 417.967 167.128C417.636 167.16 417.305 167.176 416.975 167.176C416.505 167.176 416.073 167.128 415.679 167.032C415.284 166.936 414.943 166.787 414.655 166.584C414.367 166.371 414.143 166.093 413.983 165.752C413.823 165.411 413.743 165 413.743 164.52C413.743 164.061 413.833 163.667 414.015 163.336C414.207 163.005 414.463 162.739 414.783 162.536C415.103 162.333 415.476 162.184 415.903 162.088C416.329 161.992 416.777 161.944 417.247 161.944C417.396 161.944 417.551 161.955 417.711 161.976C417.871 161.987 418.02 162.008 418.159 162.04C418.308 162.061 418.436 162.083 418.543 162.104C418.649 162.125 418.724 162.141 418.767 162.152V161.736C418.767 161.491 418.74 161.251 418.687 161.016C418.633 160.771 418.537 160.557 418.399 160.376C418.26 160.184 418.068 160.035 417.823 159.928C417.588 159.811 417.279 159.752 416.895 159.752C416.404 159.752 415.972 159.789 415.599 159.864C415.236 159.928 414.964 159.997 414.783 160.072L414.607 158.84C414.799 158.755 415.119 158.675 415.567 158.6C416.015 158.515 416.5 158.472 417.023 158.472ZM426.31 167.192C425.638 167.192 425.046 167.085 424.534 166.872C424.033 166.659 423.606 166.36 423.254 165.976C422.913 165.592 422.657 165.139 422.486 164.616C422.315 164.083 422.23 163.496 422.23 162.856C422.23 162.216 422.321 161.629 422.502 161.096C422.694 160.563 422.961 160.104 423.302 159.72C423.643 159.325 424.059 159.021 424.55 158.808C425.051 158.584 425.606 158.472 426.214 158.472C426.587 158.472 426.961 158.504 427.334 158.568C427.707 158.632 428.065 158.733 428.406 158.872L428.07 160.136C427.846 160.029 427.585 159.944 427.286 159.88C426.998 159.816 426.689 159.784 426.358 159.784C425.526 159.784 424.886 160.045 424.438 160.568C424.001 161.091 423.782 161.853 423.782 162.856C423.782 163.304 423.83 163.715 423.926 164.088C424.033 164.461 424.193 164.781 424.406 165.048C424.63 165.315 424.913 165.523 425.254 165.672C425.595 165.811 426.011 165.88 426.502 165.88C426.897 165.88 427.254 165.843 427.574 165.768C427.894 165.693 428.145 165.613 428.326 165.528L428.534 166.776C428.449 166.829 428.326 166.883 428.166 166.936C428.006 166.979 427.825 167.016 427.622 167.048C427.419 167.091 427.201 167.123 426.966 167.144C426.742 167.176 426.523 167.192 426.31 167.192ZM433.14 162.424C433.46 162.669 433.796 162.973 434.148 163.336C434.51 163.699 434.862 164.093 435.204 164.52C435.556 164.936 435.886 165.363 436.196 165.8C436.505 166.227 436.766 166.627 436.98 167H435.236C435.012 166.627 434.75 166.248 434.452 165.864C434.164 165.469 433.86 165.096 433.54 164.744C433.22 164.381 432.894 164.051 432.564 163.752C432.233 163.453 431.918 163.203 431.62 163V167H430.132V154.84L431.62 154.584V162.168C431.876 161.912 432.158 161.629 432.468 161.32C432.777 161.011 433.081 160.696 433.38 160.376C433.678 160.056 433.961 159.752 434.228 159.464C434.494 159.165 434.724 158.904 434.916 158.68H436.66C436.414 158.947 436.148 159.24 435.86 159.56C435.572 159.88 435.273 160.205 434.964 160.536C434.654 160.856 434.34 161.181 434.02 161.512C433.71 161.832 433.417 162.136 433.14 162.424ZM451.394 161.448C451.394 162.408 451.245 163.245 450.946 163.96C450.647 164.664 450.226 165.251 449.682 165.72C449.138 166.179 448.487 166.525 447.73 166.76C446.973 166.984 446.141 167.096 445.234 167.096C444.786 167.096 444.29 167.075 443.746 167.032C443.213 167 442.727 166.931 442.29 166.824V156.072C442.727 155.965 443.213 155.896 443.746 155.864C444.29 155.821 444.786 155.8 445.234 155.8C446.141 155.8 446.973 155.917 447.73 156.152C448.487 156.376 449.138 156.723 449.682 157.192C450.226 157.651 450.647 158.237 450.946 158.952C451.245 159.656 451.394 160.488 451.394 161.448ZM445.362 165.736C446.834 165.736 447.933 165.363 448.658 164.616C449.383 163.859 449.746 162.803 449.746 161.448C449.746 160.093 449.383 159.043 448.658 158.296C447.933 157.539 446.834 157.16 445.362 157.16C444.925 157.16 444.583 157.165 444.338 157.176C444.103 157.187 443.938 157.197 443.842 157.208V165.688C443.938 165.699 444.103 165.709 444.338 165.72C444.583 165.731 444.925 165.736 445.362 165.736ZM453.136 162.856C453.136 162.12 453.243 161.48 453.456 160.936C453.67 160.381 453.952 159.923 454.304 159.56C454.656 159.197 455.062 158.925 455.52 158.744C455.979 158.563 456.448 158.472 456.928 158.472C458.048 158.472 458.907 158.824 459.504 159.528C460.102 160.221 460.4 161.283 460.4 162.712C460.4 162.776 460.4 162.861 460.4 162.968C460.4 163.064 460.395 163.155 460.384 163.24H454.688C454.752 164.104 455.003 164.76 455.44 165.208C455.878 165.656 456.56 165.88 457.488 165.88C458.011 165.88 458.448 165.837 458.8 165.752C459.163 165.656 459.435 165.565 459.616 165.48L459.824 166.728C459.643 166.824 459.323 166.925 458.864 167.032C458.416 167.139 457.904 167.192 457.328 167.192C456.603 167.192 455.974 167.085 455.44 166.872C454.918 166.648 454.486 166.344 454.144 165.96C453.803 165.576 453.547 165.123 453.376 164.6C453.216 164.067 453.136 163.485 453.136 162.856ZM458.848 162.04C458.859 161.368 458.688 160.819 458.336 160.392C457.995 159.955 457.52 159.736 456.912 159.736C456.571 159.736 456.267 159.805 456 159.944C455.744 160.072 455.526 160.243 455.344 160.456C455.163 160.669 455.019 160.915 454.912 161.192C454.816 161.469 454.752 161.752 454.72 162.04H458.848ZM469.034 158.68C468.618 160.237 468.127 161.731 467.562 163.16C467.007 164.589 466.468 165.869 465.946 167H464.602C464.079 165.869 463.535 164.589 462.97 163.16C462.415 161.731 461.93 160.237 461.514 158.68H463.114C463.242 159.203 463.391 159.763 463.562 160.36C463.743 160.947 463.93 161.533 464.122 162.12C464.324 162.696 464.527 163.256 464.73 163.8C464.932 164.344 465.124 164.829 465.306 165.256C465.487 164.829 465.679 164.344 465.882 163.8C466.084 163.256 466.282 162.696 466.474 162.12C466.676 161.533 466.863 160.947 467.034 160.36C467.215 159.763 467.37 159.203 467.498 158.68H469.034ZM469.886 162.856C469.886 162.12 469.993 161.48 470.206 160.936C470.42 160.381 470.702 159.923 471.054 159.56C471.406 159.197 471.812 158.925 472.27 158.744C472.729 158.563 473.198 158.472 473.678 158.472C474.798 158.472 475.657 158.824 476.254 159.528C476.852 160.221 477.15 161.283 477.15 162.712C477.15 162.776 477.15 162.861 477.15 162.968C477.15 163.064 477.145 163.155 477.134 163.24H471.438C471.502 164.104 471.753 164.76 472.19 165.208C472.628 165.656 473.31 165.88 474.238 165.88C474.761 165.88 475.198 165.837 475.55 165.752C475.913 165.656 476.185 165.565 476.366 165.48L476.574 166.728C476.393 166.824 476.073 166.925 475.614 167.032C475.166 167.139 474.654 167.192 474.078 167.192C473.353 167.192 472.724 167.085 472.19 166.872C471.668 166.648 471.236 166.344 470.894 165.96C470.553 165.576 470.297 165.123 470.126 164.6C469.966 164.067 469.886 163.485 469.886 162.856ZM475.598 162.04C475.609 161.368 475.438 160.819 475.086 160.392C474.745 159.955 474.27 159.736 473.662 159.736C473.321 159.736 473.017 159.805 472.75 159.944C472.494 160.072 472.276 160.243 472.094 160.456C471.913 160.669 471.769 160.915 471.662 161.192C471.566 161.469 471.502 161.752 471.47 162.04H475.598ZM481.784 167.16C480.866 167.139 480.216 166.941 479.832 166.568C479.448 166.195 479.256 165.613 479.256 164.824V154.84L480.744 154.584V164.584C480.744 164.829 480.765 165.032 480.808 165.192C480.85 165.352 480.92 165.48 481.016 165.576C481.112 165.672 481.24 165.747 481.4 165.8C481.56 165.843 481.757 165.88 481.992 165.912L481.784 167.16ZM491.007 162.84C491.007 163.501 490.911 164.099 490.719 164.632C490.527 165.165 490.255 165.624 489.903 166.008C489.561 166.392 489.151 166.691 488.671 166.904C488.191 167.107 487.668 167.208 487.103 167.208C486.537 167.208 486.015 167.107 485.535 166.904C485.055 166.691 484.639 166.392 484.287 166.008C483.945 165.624 483.679 165.165 483.487 164.632C483.295 164.099 483.199 163.501 483.199 162.84C483.199 162.189 483.295 161.597 483.487 161.064C483.679 160.52 483.945 160.056 484.287 159.672C484.639 159.288 485.055 158.995 485.535 158.792C486.015 158.579 486.537 158.472 487.103 158.472C487.668 158.472 488.191 158.579 488.671 158.792C489.151 158.995 489.561 159.288 489.903 159.672C490.255 160.056 490.527 160.52 490.719 161.064C490.911 161.597 491.007 162.189 491.007 162.84ZM489.455 162.84C489.455 161.901 489.241 161.16 488.815 160.616C488.399 160.061 487.828 159.784 487.103 159.784C486.377 159.784 485.801 160.061 485.375 160.616C484.959 161.16 484.751 161.901 484.751 162.84C484.751 163.779 484.959 164.525 485.375 165.08C485.801 165.624 486.377 165.896 487.103 165.896C487.828 165.896 488.399 165.624 488.815 165.08C489.241 164.525 489.455 163.779 489.455 162.84ZM498.876 162.856C498.876 161.885 498.636 161.139 498.156 160.616C497.676 160.093 497.036 159.832 496.236 159.832C495.788 159.832 495.436 159.848 495.18 159.88C494.935 159.912 494.738 159.949 494.588 159.992V165.24C494.77 165.389 495.031 165.533 495.372 165.672C495.714 165.811 496.087 165.88 496.492 165.88C496.919 165.88 497.282 165.805 497.58 165.656C497.89 165.496 498.14 165.283 498.332 165.016C498.524 164.739 498.663 164.419 498.748 164.056C498.834 163.683 498.876 163.283 498.876 162.856ZM500.428 162.856C500.428 163.485 500.343 164.067 500.172 164.6C500.012 165.133 499.772 165.592 499.452 165.976C499.132 166.36 498.738 166.659 498.268 166.872C497.81 167.085 497.282 167.192 496.684 167.192C496.204 167.192 495.778 167.128 495.404 167C495.042 166.872 494.77 166.749 494.588 166.632V169.96H493.1V158.936C493.452 158.851 493.89 158.76 494.412 158.664C494.946 158.557 495.559 158.504 496.252 158.504C496.892 158.504 497.468 158.605 497.98 158.808C498.492 159.011 498.93 159.299 499.292 159.672C499.655 160.045 499.932 160.504 500.124 161.048C500.327 161.581 500.428 162.184 500.428 162.856ZM502.058 162.856C502.058 162.12 502.165 161.48 502.378 160.936C502.592 160.381 502.874 159.923 503.226 159.56C503.578 159.197 503.984 158.925 504.442 158.744C504.901 158.563 505.37 158.472 505.85 158.472C506.97 158.472 507.829 158.824 508.426 159.528C509.024 160.221 509.322 161.283 509.322 162.712C509.322 162.776 509.322 162.861 509.322 162.968C509.322 163.064 509.317 163.155 509.306 163.24H503.61C503.674 164.104 503.925 164.76 504.362 165.208C504.8 165.656 505.482 165.88 506.41 165.88C506.933 165.88 507.37 165.837 507.722 165.752C508.085 165.656 508.357 165.565 508.538 165.48L508.746 166.728C508.565 166.824 508.245 166.925 507.786 167.032C507.338 167.139 506.826 167.192 506.25 167.192C505.525 167.192 504.896 167.085 504.362 166.872C503.84 166.648 503.408 166.344 503.066 165.96C502.725 165.576 502.469 165.123 502.298 164.6C502.138 164.067 502.058 163.485 502.058 162.856ZM507.77 162.04C507.781 161.368 507.61 160.819 507.258 160.392C506.917 159.955 506.442 159.736 505.834 159.736C505.493 159.736 505.189 159.805 504.922 159.944C504.666 160.072 504.448 160.243 504.266 160.456C504.085 160.669 503.941 160.915 503.834 161.192C503.738 161.469 503.674 161.752 503.642 162.04H507.77ZM514.532 158.504C514.66 158.504 514.804 158.515 514.964 158.536C515.134 158.547 515.3 158.568 515.46 158.6C515.62 158.621 515.764 158.648 515.892 158.68C516.03 158.701 516.132 158.723 516.196 158.744L515.94 160.04C515.822 159.997 515.625 159.949 515.348 159.896C515.081 159.832 514.734 159.8 514.308 159.8C514.03 159.8 513.753 159.832 513.476 159.896C513.209 159.949 513.033 159.987 512.948 160.008V167H511.46V159.032C511.812 158.904 512.249 158.787 512.772 158.68C513.294 158.563 513.881 158.504 514.532 158.504ZM525.383 164.216L520.631 161.848L525.383 159.464V164.216ZM540.16 161.448C540.16 162.408 540.01 163.245 539.712 163.96C539.413 164.664 538.992 165.251 538.448 165.72C537.904 166.179 537.253 166.525 536.496 166.76C535.738 166.984 534.906 167.096 534 167.096C533.552 167.096 533.056 167.075 532.512 167.032C531.978 167 531.493 166.931 531.056 166.824V156.072C531.493 155.965 531.978 155.896 532.512 155.864C533.056 155.821 533.552 155.8 534 155.8C534.906 155.8 535.738 155.917 536.496 156.152C537.253 156.376 537.904 156.723 538.448 157.192C538.992 157.651 539.413 158.237 539.712 158.952C540.01 159.656 540.16 160.488 540.16 161.448ZM534.128 165.736C535.6 165.736 536.698 165.363 537.424 164.616C538.149 163.859 538.512 162.803 538.512 161.448C538.512 160.093 538.149 159.043 537.424 158.296C536.698 157.539 535.6 157.16 534.128 157.16C533.69 157.16 533.349 157.165 533.104 157.176C532.869 157.187 532.704 157.197 532.608 157.208V165.688C532.704 165.699 532.869 165.709 533.104 165.72C533.349 165.731 533.69 165.736 534.128 165.736ZM544.963 165.928C545.315 165.928 545.625 165.923 545.891 165.912C546.169 165.891 546.398 165.859 546.579 165.816V163.336C546.473 163.283 546.297 163.24 546.051 163.208C545.817 163.165 545.529 163.144 545.187 163.144C544.963 163.144 544.723 163.16 544.467 163.192C544.222 163.224 543.993 163.293 543.779 163.4C543.577 163.496 543.406 163.635 543.267 163.816C543.129 163.987 543.059 164.216 543.059 164.504C543.059 165.037 543.23 165.411 543.571 165.624C543.913 165.827 544.377 165.928 544.963 165.928ZM544.835 158.472C545.433 158.472 545.934 158.552 546.339 158.712C546.755 158.861 547.086 159.08 547.331 159.368C547.587 159.645 547.769 159.981 547.875 160.376C547.982 160.76 548.035 161.187 548.035 161.656V166.856C547.907 166.877 547.726 166.909 547.491 166.952C547.267 166.984 547.011 167.016 546.723 167.048C546.435 167.08 546.121 167.107 545.779 167.128C545.449 167.16 545.118 167.176 544.787 167.176C544.318 167.176 543.886 167.128 543.491 167.032C543.097 166.936 542.755 166.787 542.467 166.584C542.179 166.371 541.955 166.093 541.795 165.752C541.635 165.411 541.555 165 541.555 164.52C541.555 164.061 541.646 163.667 541.827 163.336C542.019 163.005 542.275 162.739 542.595 162.536C542.915 162.333 543.289 162.184 543.715 162.088C544.142 161.992 544.59 161.944 545.059 161.944C545.209 161.944 545.363 161.955 545.523 161.976C545.683 161.987 545.833 162.008 545.971 162.04C546.121 162.061 546.249 162.083 546.355 162.104C546.462 162.125 546.537 162.141 546.579 162.152V161.736C546.579 161.491 546.553 161.251 546.499 161.016C546.446 160.771 546.35 160.557 546.211 160.376C546.073 160.184 545.881 160.035 545.635 159.928C545.401 159.811 545.091 159.752 544.707 159.752C544.217 159.752 543.785 159.789 543.411 159.864C543.049 159.928 542.777 159.997 542.595 160.072L542.419 158.84C542.611 158.755 542.931 158.675 543.379 158.6C543.827 158.515 544.313 158.472 544.835 158.472ZM551.899 158.68H555.051V159.928H551.899V163.768C551.899 164.184 551.931 164.531 551.995 164.808C552.059 165.075 552.155 165.288 552.283 165.448C552.411 165.597 552.571 165.704 552.763 165.768C552.955 165.832 553.179 165.864 553.435 165.864C553.883 165.864 554.24 165.816 554.507 165.72C554.784 165.613 554.976 165.539 555.083 165.496L555.371 166.728C555.221 166.803 554.96 166.893 554.587 167C554.213 167.117 553.787 167.176 553.307 167.176C552.741 167.176 552.272 167.107 551.899 166.968C551.536 166.819 551.243 166.6 551.019 166.312C550.795 166.024 550.635 165.672 550.539 165.256C550.453 164.829 550.411 164.339 550.411 163.784V156.36L551.899 156.104V158.68ZM559.76 165.928C560.112 165.928 560.421 165.923 560.688 165.912C560.965 165.891 561.195 165.859 561.376 165.816V163.336C561.269 163.283 561.093 163.24 560.848 163.208C560.613 163.165 560.325 163.144 559.984 163.144C559.76 163.144 559.52 163.16 559.264 163.192C559.019 163.224 558.789 163.293 558.576 163.4C558.373 163.496 558.203 163.635 558.064 163.816C557.925 163.987 557.856 164.216 557.856 164.504C557.856 165.037 558.027 165.411 558.368 165.624C558.709 165.827 559.173 165.928 559.76 165.928ZM559.632 158.472C560.229 158.472 560.731 158.552 561.136 158.712C561.552 158.861 561.883 159.08 562.128 159.368C562.384 159.645 562.565 159.981 562.672 160.376C562.779 160.76 562.832 161.187 562.832 161.656V166.856C562.704 166.877 562.523 166.909 562.288 166.952C562.064 166.984 561.808 167.016 561.52 167.048C561.232 167.08 560.917 167.107 560.576 167.128C560.245 167.16 559.915 167.176 559.584 167.176C559.115 167.176 558.683 167.128 558.288 167.032C557.893 166.936 557.552 166.787 557.264 166.584C556.976 166.371 556.752 166.093 556.592 165.752C556.432 165.411 556.352 165 556.352 164.52C556.352 164.061 556.443 163.667 556.624 163.336C556.816 163.005 557.072 162.739 557.392 162.536C557.712 162.333 558.085 162.184 558.512 162.088C558.939 161.992 559.387 161.944 559.856 161.944C560.005 161.944 560.16 161.955 560.32 161.976C560.48 161.987 560.629 162.008 560.768 162.04C560.917 162.061 561.045 162.083 561.152 162.104C561.259 162.125 561.333 162.141 561.376 162.152V161.736C561.376 161.491 561.349 161.251 561.296 161.016C561.243 160.771 561.147 160.557 561.008 160.376C560.869 160.184 560.677 160.035 560.432 159.928C560.197 159.811 559.888 159.752 559.504 159.752C559.013 159.752 558.581 159.789 558.208 159.864C557.845 159.928 557.573 159.997 557.392 160.072L557.216 158.84C557.408 158.755 557.728 158.675 558.176 158.6C558.624 158.515 559.109 158.472 559.632 158.472ZM576.511 167C576.329 166.52 576.159 166.051 575.999 165.592C575.839 165.123 575.673 164.648 575.503 164.168H570.479L569.471 167H567.855C568.281 165.827 568.681 164.744 569.055 163.752C569.428 162.749 569.791 161.8 570.143 160.904C570.505 160.008 570.863 159.155 571.215 158.344C571.567 157.523 571.935 156.712 572.319 155.912H573.743C574.127 156.712 574.495 157.523 574.847 158.344C575.199 159.155 575.551 160.008 575.903 160.904C576.265 161.8 576.633 162.749 577.007 163.752C577.38 164.744 577.78 165.827 578.207 167H576.511ZM575.055 162.888C574.713 161.96 574.372 161.064 574.031 160.2C573.7 159.325 573.353 158.488 572.991 157.688C572.617 158.488 572.26 159.325 571.919 160.2C571.588 161.064 571.257 161.96 570.927 162.888H575.055ZM579.616 158.92C579.957 158.835 580.411 158.744 580.976 158.648C581.541 158.552 582.192 158.504 582.928 158.504C583.589 158.504 584.139 158.6 584.576 158.792C585.013 158.973 585.36 159.235 585.616 159.576C585.883 159.907 586.069 160.307 586.176 160.776C586.283 161.245 586.336 161.763 586.336 162.328V167H584.848V162.648C584.848 162.136 584.811 161.699 584.736 161.336C584.672 160.973 584.56 160.68 584.4 160.456C584.24 160.232 584.027 160.072 583.76 159.976C583.493 159.869 583.163 159.816 582.768 159.816C582.608 159.816 582.443 159.821 582.272 159.832C582.101 159.843 581.936 159.859 581.776 159.88C581.627 159.891 581.488 159.907 581.36 159.928C581.243 159.949 581.157 159.965 581.104 159.976V167H579.616V158.92ZM591.619 165.928C591.971 165.928 592.281 165.923 592.547 165.912C592.825 165.891 593.054 165.859 593.235 165.816V163.336C593.129 163.283 592.953 163.24 592.707 163.208C592.473 163.165 592.185 163.144 591.843 163.144C591.619 163.144 591.379 163.16 591.123 163.192C590.878 163.224 590.649 163.293 590.435 163.4C590.233 163.496 590.062 163.635 589.923 163.816C589.785 163.987 589.715 164.216 589.715 164.504C589.715 165.037 589.886 165.411 590.227 165.624C590.569 165.827 591.033 165.928 591.619 165.928ZM591.491 158.472C592.089 158.472 592.59 158.552 592.995 158.712C593.411 158.861 593.742 159.08 593.987 159.368C594.243 159.645 594.425 159.981 594.531 160.376C594.638 160.76 594.691 161.187 594.691 161.656V166.856C594.563 166.877 594.382 166.909 594.147 166.952C593.923 166.984 593.667 167.016 593.379 167.048C593.091 167.08 592.777 167.107 592.435 167.128C592.105 167.16 591.774 167.176 591.443 167.176C590.974 167.176 590.542 167.128 590.147 167.032C589.753 166.936 589.411 166.787 589.123 166.584C588.835 166.371 588.611 166.093 588.451 165.752C588.291 165.411 588.211 165 588.211 164.52C588.211 164.061 588.302 163.667 588.483 163.336C588.675 163.005 588.931 162.739 589.251 162.536C589.571 162.333 589.945 162.184 590.371 162.088C590.798 161.992 591.246 161.944 591.715 161.944C591.865 161.944 592.019 161.955 592.179 161.976C592.339 161.987 592.489 162.008 592.627 162.04C592.777 162.061 592.905 162.083 593.011 162.104C593.118 162.125 593.193 162.141 593.235 162.152V161.736C593.235 161.491 593.209 161.251 593.155 161.016C593.102 160.771 593.006 160.557 592.867 160.376C592.729 160.184 592.537 160.035 592.291 159.928C592.057 159.811 591.747 159.752 591.363 159.752C590.873 159.752 590.441 159.789 590.067 159.864C589.705 159.928 589.433 159.997 589.251 160.072L589.075 158.84C589.267 158.755 589.587 158.675 590.035 158.6C590.483 158.515 590.969 158.472 591.491 158.472ZM599.659 167.16C598.741 167.139 598.091 166.941 597.707 166.568C597.323 166.195 597.131 165.613 597.131 164.824V154.84L598.619 154.584V164.584C598.619 164.829 598.64 165.032 598.683 165.192C598.725 165.352 598.795 165.48 598.891 165.576C598.987 165.672 599.115 165.747 599.275 165.8C599.435 165.843 599.632 165.88 599.867 165.912L599.659 167.16ZM600.562 168.552C600.679 168.605 600.828 168.653 601.01 168.696C601.202 168.749 601.388 168.776 601.57 168.776C602.156 168.776 602.615 168.643 602.946 168.376C603.276 168.12 603.575 167.699 603.842 167.112C603.17 165.832 602.54 164.477 601.954 163.048C601.378 161.608 600.898 160.152 600.514 158.68H602.114C602.231 159.16 602.37 159.677 602.53 160.232C602.7 160.787 602.887 161.357 603.09 161.944C603.292 162.531 603.511 163.117 603.746 163.704C603.98 164.291 604.226 164.856 604.482 165.4C604.887 164.28 605.239 163.171 605.538 162.072C605.836 160.973 606.119 159.843 606.386 158.68H607.922C607.538 160.248 607.111 161.757 606.642 163.208C606.172 164.648 605.666 165.997 605.122 167.256C604.908 167.736 604.684 168.147 604.45 168.488C604.226 168.84 603.975 169.128 603.698 169.352C603.42 169.576 603.106 169.741 602.754 169.848C602.412 169.955 602.023 170.008 601.586 170.008C601.468 170.008 601.346 169.997 601.218 169.976C601.09 169.965 600.962 169.944 600.834 169.912C600.716 169.891 600.604 169.864 600.498 169.832C600.402 169.8 600.332 169.773 600.29 169.752L600.562 168.552ZM611.427 165.928C612.035 165.928 612.483 165.848 612.771 165.688C613.07 165.528 613.219 165.272 613.219 164.92C613.219 164.557 613.075 164.269 612.787 164.056C612.499 163.843 612.024 163.603 611.363 163.336C611.043 163.208 610.734 163.08 610.435 162.952C610.147 162.813 609.896 162.653 609.683 162.472C609.47 162.291 609.299 162.072 609.171 161.816C609.043 161.56 608.979 161.245 608.979 160.872C608.979 160.136 609.251 159.555 609.795 159.128C610.339 158.691 611.08 158.472 612.019 158.472C612.254 158.472 612.488 158.488 612.723 158.52C612.958 158.541 613.176 158.573 613.379 158.616C613.582 158.648 613.758 158.685 613.907 158.728C614.067 158.771 614.19 158.808 614.275 158.84L614.003 160.12C613.843 160.035 613.592 159.949 613.251 159.864C612.91 159.768 612.499 159.72 612.019 159.72C611.603 159.72 611.24 159.805 610.931 159.976C610.622 160.136 610.467 160.392 610.467 160.744C610.467 160.925 610.499 161.085 610.563 161.224C610.638 161.363 610.744 161.491 610.883 161.608C611.032 161.715 611.214 161.816 611.427 161.912C611.64 162.008 611.896 162.109 612.195 162.216C612.59 162.365 612.942 162.515 613.251 162.664C613.56 162.803 613.822 162.968 614.035 163.16C614.259 163.352 614.43 163.587 614.547 163.864C614.664 164.131 614.723 164.461 614.723 164.856C614.723 165.624 614.435 166.205 613.859 166.6C613.294 166.995 612.483 167.192 611.427 167.192C610.691 167.192 610.115 167.128 609.699 167C609.283 166.883 609 166.792 608.851 166.728L609.123 165.448C609.294 165.512 609.566 165.608 609.939 165.736C610.312 165.864 610.808 165.928 611.427 165.928ZM618.024 158.68H621.176V159.928H618.024V163.768C618.024 164.184 618.056 164.531 618.12 164.808C618.184 165.075 618.28 165.288 618.408 165.448C618.536 165.597 618.696 165.704 618.888 165.768C619.08 165.832 619.304 165.864 619.56 165.864C620.008 165.864 620.365 165.816 620.632 165.72C620.909 165.613 621.101 165.539 621.208 165.496L621.496 166.728C621.346 166.803 621.085 166.893 620.712 167C620.338 167.117 619.912 167.176 619.432 167.176C618.866 167.176 618.397 167.107 618.024 166.968C617.661 166.819 617.368 166.6 617.144 166.312C616.92 166.024 616.76 165.672 616.664 165.256C616.578 164.829 616.536 164.339 616.536 163.784V156.36L618.024 156.104V158.68Z"
        fill="#94a3b8"
      />
    </g>
    <!-- #endregion -->

    <!-- #region additional  -->
    <g class="animate-fade-in-right additional">
      <g class="additional__indicator animate-fade-in">
        <circle cx="373" cy="215" r="5" fill="#FCFBFF" class="animate-ping" />
        <circle cx="373" cy="215" r="3" fill="#AA4BD7" />
      </g>
      <g class="additional__text">
        <path
          d="M386.132 219L389.156 210.06H391.628L394.652 219H392.624L392.024 217.176H388.748L388.148 219H386.132ZM389.264 215.556H391.508L390.14 211.332H390.644L389.264 215.556ZM397.501 219L394.441 210.06H396.481L398.785 217.236H398.377L400.681 210.06H402.721L399.661 219H397.501ZM402.503 219L405.527 210.06H407.999L411.023 219H408.995L408.395 217.176H405.119L404.519 219H402.503ZM405.635 215.556H407.879L406.511 211.332H407.015L405.635 215.556ZM411.952 219V210.06H413.812V219H411.952ZM415.397 219V210.06H417.257V217.38H421.037V219H415.397ZM421.3 219L424.324 210.06H426.796L429.82 219H427.792L427.192 217.176H423.916L423.316 219H421.3ZM424.432 215.556H426.676L425.308 211.332H425.812L424.432 215.556ZM430.749 219V210.06H434.529C435.145 210.06 435.673 210.164 436.113 210.372C436.553 210.58 436.889 210.88 437.121 211.272C437.353 211.656 437.469 212.124 437.469 212.676C437.469 213.068 437.361 213.444 437.145 213.804C436.929 214.156 436.573 214.452 436.077 214.692V213.78C436.549 213.964 436.913 214.184 437.169 214.44C437.425 214.696 437.601 214.976 437.697 215.28C437.793 215.576 437.841 215.888 437.841 216.216C437.841 217.096 437.549 217.78 436.965 218.268C436.381 218.756 435.569 219 434.529 219H430.749ZM432.609 217.38H434.745C435.121 217.38 435.421 217.272 435.645 217.056C435.869 216.84 435.981 216.56 435.981 216.216C435.981 215.864 435.869 215.58 435.645 215.364C435.421 215.148 435.121 215.04 434.745 215.04H432.609V217.38ZM432.609 213.42H434.661C434.949 213.42 435.177 213.34 435.345 213.18C435.521 213.012 435.609 212.792 435.609 212.52C435.609 212.248 435.521 212.032 435.345 211.872C435.177 211.704 434.949 211.62 434.661 211.62H432.609V213.42ZM439.034 219V210.06H440.894V217.38H444.674V219H439.034ZM445.597 219V210.06H451.609V211.68H447.457V213.708H451.369V215.328H447.457V217.38H451.609V219H445.597ZM454.819 219V210.06H460.939V211.68H456.679V213.948H460.339V215.568H456.679V219H454.819ZM466.221 219.144C465.549 219.144 464.925 219.028 464.349 218.796C463.773 218.564 463.269 218.24 462.837 217.824C462.413 217.4 462.081 216.908 461.841 216.348C461.601 215.788 461.481 215.18 461.481 214.524C461.481 213.868 461.597 213.26 461.829 212.7C462.069 212.14 462.401 211.652 462.825 211.236C463.257 210.82 463.761 210.496 464.337 210.264C464.913 210.032 465.541 209.916 466.221 209.916C466.901 209.916 467.529 210.032 468.105 210.264C468.681 210.496 469.181 210.82 469.605 211.236C470.037 211.652 470.369 212.14 470.601 212.7C470.841 213.26 470.961 213.868 470.961 214.524C470.961 215.18 470.841 215.788 470.601 216.348C470.361 216.908 470.025 217.4 469.593 217.824C469.169 218.24 468.669 218.564 468.093 218.796C467.517 219.028 466.893 219.144 466.221 219.144ZM466.221 217.464C466.629 217.464 467.005 217.392 467.349 217.248C467.701 217.104 468.009 216.904 468.273 216.648C468.537 216.384 468.741 216.072 468.885 215.712C469.029 215.352 469.101 214.956 469.101 214.524C469.101 214.092 469.029 213.7 468.885 213.348C468.741 212.988 468.537 212.676 468.273 212.412C468.009 212.148 467.701 211.948 467.349 211.812C467.005 211.668 466.629 211.596 466.221 211.596C465.813 211.596 465.433 211.668 465.081 211.812C464.737 211.948 464.433 212.148 464.169 212.412C463.905 212.676 463.701 212.988 463.557 213.348C463.413 213.7 463.341 214.092 463.341 214.524C463.341 214.956 463.413 215.352 463.557 215.712C463.701 216.072 463.905 216.384 464.169 216.648C464.433 216.904 464.737 217.104 465.081 217.248C465.433 217.392 465.813 217.464 466.221 217.464ZM472.28 219V210.06H475.7C476.316 210.06 476.86 210.168 477.332 210.384C477.812 210.6 478.188 210.92 478.46 211.344C478.732 211.768 478.868 212.292 478.868 212.916C478.868 213.524 478.728 214.044 478.448 214.476C478.168 214.9 477.792 215.22 477.32 215.436L479.36 219H477.272L475.064 215.052L476.264 215.76H474.14V219H472.28ZM474.14 214.14H475.712C475.976 214.14 476.204 214.088 476.396 213.984C476.588 213.88 476.736 213.736 476.84 213.552C476.952 213.368 477.008 213.156 477.008 212.916C477.008 212.668 476.952 212.452 476.84 212.268C476.736 212.084 476.588 211.94 476.396 211.836C476.204 211.732 475.976 211.68 475.712 211.68H474.14V214.14ZM482.44 219V210.06H484.3V213.924H487.78V210.06H489.64V219H487.78V215.544H484.3V219H482.44ZM491.229 219V210.06H493.09V219H491.229ZM494.675 219V210.06H498.095C498.711 210.06 499.255 210.168 499.727 210.384C500.207 210.6 500.583 210.92 500.855 211.344C501.127 211.768 501.263 212.292 501.263 212.916C501.263 213.524 501.123 214.044 500.843 214.476C500.563 214.9 500.187 215.22 499.715 215.436L501.755 219H499.667L497.459 215.052L498.659 215.76H496.535V219H494.675ZM496.535 214.14H498.107C498.371 214.14 498.599 214.088 498.791 213.984C498.983 213.88 499.131 213.736 499.235 213.552C499.347 213.368 499.403 213.156 499.403 212.916C499.403 212.668 499.347 212.452 499.235 212.268C499.131 212.084 498.983 211.94 498.791 211.836C498.599 211.732 498.371 211.68 498.107 211.68H496.535V214.14ZM502.679 219V210.06H508.691V211.68H504.539V213.708H508.451V215.328H504.539V217.38H508.691V219H502.679Z"
          fill="#AA4BD7"
        />
      </g>
    </g>
    <!-- #endregion -->
  </g>

  <!-- #region defs -->
  <defs>
    <linearGradient
      id="paint0_linear_1_2"
      x1="448"
      y1="0"
      x2="448"
      y2="288"
      gradientUnits="userSpaceOnUse"
    >
      <stop stop-color="#0F172A" />
      <stop offset="1" stop-color="#0F172A" stop-opacity="0" />
    </linearGradient>
    <linearGradient
      id="paint1_linear_1_2"
      x1="448"
      y1="0"
      x2="448"
      y2="288"
      gradientUnits="userSpaceOnUse"
    >
      <stop />
      <stop offset="1" stop-opacity="0" />
    </linearGradient>
    <clipPath id="clip0_1_2">
      <path
        d="M0 32C0 14.3269 14.3269 0 32 0H864C881.673 0 896 14.3269 896 32V288H0V32Z"
        fill="white"
      />
    </clipPath>
  </defs>
  <!-- #endregion -->
</svg>
